<svg viewBox="0 0 500 500" xmlns="http://www.w3.org/2000/svg"><path d="m86.0353 49.5909c7.2277 0 12.648-5.4199 12.648-12.6477 0-7.224-5.4203-12.6475-12.648-12.6475-7.2278 0-12.6476 5.4235-12.6476 12.6475 0 7.2278 5.4198 12.6477 12.6476 12.6477zm0 38.845c7.2277 0 12.648-5.4198 12.648-12.6476 0-7.224-5.4203-12.6439-12.648-12.6439-7.2278 0-12.6476 5.4199-12.6476 12.6439 0 7.2278 5.4198 12.6476 12.6476 12.6476zm0 38.8491c7.2277 0 12.648-5.424 12.648-12.648 0-7.228-5.4203-12.648-12.648-12.648-7.2278 0-12.6476 5.42-12.6476 12.648 0 7.224 5.4198 12.648 12.6476 12.648zm0 38.845c7.2277 0 12.648-5.42 12.648-12.648s-5.4203-12.648-12.648-12.648c-7.2278 0-12.6476 5.42-12.6476 12.648s5.4198 12.648 12.6476 12.648zm0 38.845c7.2277 0 12.648-5.42 12.648-12.648s-5.4203-12.648-12.648-12.648c-7.2278 0-12.6476 5.42-12.6476 12.648s5.4198 12.648 12.6476 12.648zm0 37.943c7.2277 0 12.648-4.518 12.648-11.746s-5.4203-12.648-12.648-12.648c-7.2278 0-12.6476 5.42-12.6476 12.648s5.4198 11.746 12.6476 11.746zm0 38.845c7.2277 0 12.648-5.42 12.648-12.648s-5.4203-12.648-12.648-12.648c-7.2278 0-12.6476 5.42-12.6476 12.648s5.4198 12.648 12.6476 12.648zm0 38.845c7.2277 0 12.648-5.42 12.648-12.648s-5.4203-12.648-12.648-12.648c-7.2278 0-12.6476 5.42-12.6476 12.648s5.4198 12.648 12.6476 12.648zm0 38.845c7.2277 0 12.648-5.42 12.648-12.648s-5.4203-12.648-12.648-12.648c-7.2278 0-12.6476 5.42-12.6476 12.648s5.4198 12.648 12.6476 12.648zm0 38.845c7.2277 0 12.648-5.42 12.648-12.648s-5.4203-12.648-12.648-12.648c-7.2278 0-12.6476 5.42-12.6476 12.648s5.4198 12.648 12.6476 12.648zm0 38.845c7.2277 0 12.648-5.42 12.648-12.648 0-7.224-5.4203-12.644-12.648-12.644-7.2278 0-12.6476 5.42-12.6476 12.644 0 7.228 5.4198 12.648 12.6476 12.648zm0 38.849c7.2277 0 12.648-5.424 12.648-12.648 0-7.228-5.4203-12.648-12.648-12.648-7.2278 0-12.6476 5.42-12.6476 12.648 0 7.224 5.4198 12.648 12.6476 12.648zm36.1347-426.4011c7.228 0 12.648-5.4199 12.648-12.6477 0-7.224-5.42-12.6475-12.648-12.6475-7.227 0-12.647 5.4235-12.647 12.6475 0 7.2278 5.42 12.6477 12.647 12.6477zm0 38.845c7.228 0 12.648-5.4198 12.648-12.6476 0-7.224-5.42-12.6439-12.648-12.6439-7.227 0-12.647 5.4199-12.647 12.6439 0 7.2278 5.42 12.6476 12.647 12.6476zm0 38.8491c7.228 0 12.648-5.424 12.648-12.648 0-7.228-5.42-12.648-12.648-12.648-7.227 0-12.647 5.42-12.647 12.648 0 7.224 5.42 12.648 12.647 12.648zm0 38.845c7.228 0 12.648-5.42 12.648-12.648s-5.42-12.648-12.648-12.648c-7.227 0-12.647 5.42-12.647 12.648s5.42 12.648 12.647 12.648zm0 38.845c7.228 0 12.648-5.42 12.648-12.648s-5.42-12.648-12.648-12.648c-7.227 0-12.647 5.42-12.647 12.648s5.42 12.648 12.647 12.648zm0 37.943c7.228 0 12.648-4.518 12.648-11.746s-5.42-12.648-12.648-12.648c-7.227 0-12.647 5.42-12.647 12.648s5.42 11.746 12.647 11.746zm0 38.845c7.228 0 12.648-5.42 12.648-12.648s-5.42-12.648-12.648-12.648c-7.227 0-12.647 5.42-12.647 12.648s5.42 12.648 12.647 12.648zm0 38.845c7.228 0 12.648-5.42 12.648-12.648s-5.42-12.648-12.648-12.648c-7.227 0-12.647 5.42-12.647 12.648s5.42 12.648 12.647 12.648zm0 38.845c7.228 0 12.648-5.42 12.648-12.648s-5.42-12.648-12.648-12.648c-7.227 0-12.647 5.42-12.647 12.648s5.42 12.648 12.647 12.648zm0 38.845c7.228 0 12.648-5.42 12.648-12.648s-5.42-12.648-12.648-12.648c-7.227 0-12.647 5.42-12.647 12.648s5.42 12.648 12.647 12.648zm0 38.845c7.228 0 12.648-5.42 12.648-12.648 0-7.224-5.42-12.644-12.648-12.644-7.227 0-12.647 5.42-12.647 12.644 0 7.228 5.42 12.648 12.647 12.648zm0 38.849c7.228 0 12.648-5.424 12.648-12.648 0-7.228-5.42-12.648-12.648-12.648-7.227 0-12.647 5.42-12.647 12.648 0 7.224 5.42 12.648 12.647 12.648zm36.136-426.4011c7.227 0 12.647-5.4199 12.647-12.6477 0-7.224-5.42-12.6475-12.647-12.6475-7.228 0-12.648 5.4235-12.648 12.6475 0 7.2278 5.42 12.6477 12.648 12.6477zm0 38.845c7.227 0 12.647-5.4198 12.647-12.6476 0-7.224-5.42-12.6439-12.647-12.6439-7.228 0-12.648 5.4199-12.648 12.6439 0 7.2278 5.42 12.6476 12.648 12.6476zm0 38.8491c7.227 0 12.647-5.424 12.647-12.648 0-7.228-5.42-12.648-12.647-12.648-7.228 0-12.648 5.42-12.648 12.648 0 7.224 5.42 12.648 12.648 12.648zm0 38.845c7.227 0 12.647-5.42 12.647-12.648s-5.42-12.648-12.647-12.648c-7.228 0-12.648 5.42-12.648 12.648s5.42 12.648 12.648 12.648zm0 38.845c7.227 0 12.647-5.42 12.647-12.648s-5.42-12.648-12.647-12.648c-7.228 0-12.648 5.42-12.648 12.648s5.42 12.648 12.648 12.648zm0 37.943c7.227 0 12.647-4.518 12.647-11.746s-5.42-12.648-12.647-12.648c-7.228 0-12.648 5.42-12.648 12.648s5.42 11.746 12.648 11.746zm0 38.845c7.227 0 12.647-5.42 12.647-12.648s-5.42-12.648-12.647-12.648c-7.228 0-12.648 5.42-12.648 12.648s5.42 12.648 12.648 12.648zm0 38.845c7.227 0 12.647-5.42 12.647-12.648s-5.42-12.648-12.647-12.648c-7.228 0-12.648 5.42-12.648 12.648s5.42 12.648 12.648 12.648zm0 38.845c7.227 0 12.647-5.42 12.647-12.648s-5.42-12.648-12.647-12.648c-7.228 0-12.648 5.42-12.648 12.648s5.42 12.648 12.648 12.648zm0 38.845c7.227 0 12.647-5.42 12.647-12.648s-5.42-12.648-12.647-12.648c-7.228 0-12.648 5.42-12.648 12.648s5.42 12.648 12.648 12.648zm0 38.845c7.227 0 12.647-5.42 12.647-12.648 0-7.224-5.42-12.644-12.647-12.644-7.228 0-12.648 5.42-12.648 12.644 0 7.228 5.42 12.648 12.648 12.648zm0 38.849c7.227 0 12.647-5.424 12.647-12.648 0-7.228-5.42-12.648-12.647-12.648-7.228 0-12.648 5.42-12.648 12.648 0 7.224 5.42 12.648 12.648 12.648zm37.04-426.4011c7.225 0 12.648-5.4199 12.648-12.6477 0-7.224-5.423-12.6475-12.648-12.6475-7.227 0-12.647 5.4235-12.647 12.6475 0 7.2278 5.42 12.6477 12.647 12.6477zm0 38.845c7.225 0 12.648-5.4198 12.648-12.6476 0-7.224-5.423-12.6439-12.648-12.6439-7.227 0-12.647 5.4199-12.647 12.6439 0 7.2278 5.42 12.6476 12.647 12.6476zm0 38.8491c7.225 0 12.648-5.424 12.648-12.648 0-7.228-5.423-12.648-12.648-12.648-7.227 0-12.647 5.42-12.647 12.648 0 7.224 5.42 12.648 12.647 12.648zm36.136-77.6941c7.224 0 12.647-5.4199 12.647-12.6477 0-7.224-5.423-12.6475-12.647-12.6475-7.228 0-12.648 5.4235-12.648 12.6475 0 7.2278 5.42 12.6477 12.648 12.6477zm0 38.845c7.224 0 12.647-5.4198 12.647-12.6476 0-7.224-5.423-12.6439-12.647-12.6439-7.228 0-12.648 5.4199-12.648 12.6439 0 7.2278 5.42 12.6476 12.648 12.6476zm0 38.8491c7.224 0 12.647-5.424 12.647-12.648 0-7.228-5.423-12.648-12.647-12.648-7.228 0-12.648 5.42-12.648 12.648 0 7.224 5.42 12.648 12.648 12.648zm36.135-77.6941c7.227 0 12.647-5.4199 12.647-12.6477 0-7.224-5.42-12.6475-12.647-12.6475-7.228 0-12.648 5.4235-12.648 12.6475 0 7.2278 5.42 12.6477 12.648 12.6477zm0 38.845c7.227 0 12.647-5.4198 12.647-12.6476 0-7.224-5.42-12.6439-12.647-12.6439-7.228 0-12.648 5.4199-12.648 12.6439 0 7.2278 5.42 12.6476 12.648 12.6476zm0 38.8491c7.227 0 12.647-5.424 12.647-12.648 0-7.228-5.42-12.648-12.647-12.648-7.228 0-12.648 5.42-12.648 12.648 0 7.224 5.42 12.648 12.648 12.648zm-72.271 154.478c7.225 0 12.648-5.42 12.648-12.648s-5.423-12.648-12.648-12.648c-7.227 0-12.647 5.42-12.647 12.648s5.42 12.648 12.647 12.648zm0 38.845c7.225 0 12.648-5.42 12.648-12.648s-5.423-12.648-12.648-12.648c-7.227 0-12.647 5.42-12.647 12.648s5.42 12.648 12.647 12.648zm0 38.845c7.225 0 12.648-5.42 12.648-12.648s-5.423-12.648-12.648-12.648c-7.227 0-12.647 5.42-12.647 12.648s5.42 12.648 12.647 12.648zm36.136-77.69c7.224 0 12.647-5.42 12.647-12.648s-5.423-12.648-12.647-12.648c-7.228 0-12.648 5.42-12.648 12.648s5.42 12.648 12.648 12.648zm0 38.845c7.224 0 12.647-5.42 12.647-12.648s-5.423-12.648-12.647-12.648c-7.228 0-12.648 5.42-12.648 12.648s5.42 12.648 12.648 12.648zm0 38.845c7.224 0 12.647-5.42 12.647-12.648s-5.423-12.648-12.647-12.648c-7.228 0-12.648 5.42-12.648 12.648s5.42 12.648 12.648 12.648zm36.135-77.69c7.227 0 12.647-5.42 12.647-12.648s-5.42-12.648-12.647-12.648c-7.228 0-12.648 5.42-12.648 12.648s5.42 12.648 12.648 12.648zm0 38.845c7.227 0 12.647-5.42 12.647-12.648s-5.42-12.648-12.647-12.648c-7.228 0-12.648 5.42-12.648 12.648s5.42 12.648 12.648 12.648zm0 38.845c7.227 0 12.647-5.42 12.647-12.648s-5.42-12.648-12.647-12.648c-7.228 0-12.648 5.42-12.648 12.648s5.42 12.648 12.648 12.648zm37.037-309.8621c7.227 0 12.648-5.4199 12.648-12.6477 0-7.224-5.421-12.6475-12.648-12.6475-7.228 0-12.648 5.4235-12.648 12.6475 0 7.2278 5.42 12.6477 12.648 12.6477zm0 38.845c7.227 0 12.648-5.4198 12.648-12.6476 0-7.224-5.421-12.6439-12.648-12.6439-7.228 0-12.648 5.4199-12.648 12.6439 0 7.2278 5.42 12.6476 12.648 12.6476zm0 38.8491c7.227 0 12.648-5.424 12.648-12.648 0-7.228-5.421-12.648-12.648-12.648-7.228 0-12.648 5.42-12.648 12.648 0 7.224 5.42 12.648 12.648 12.648zm0 154.478c7.227 0 12.648-5.42 12.648-12.648s-5.421-12.648-12.648-12.648c-7.228 0-12.648 5.42-12.648 12.648s5.42 12.648 12.648 12.648zm0 38.845c7.227 0 12.648-5.42 12.648-12.648s-5.421-12.648-12.648-12.648c-7.228 0-12.648 5.42-12.648 12.648s5.42 12.648 12.648 12.648zm0 38.845c7.227 0 12.648-5.42 12.648-12.648s-5.421-12.648-12.648-12.648c-7.228 0-12.648 5.42-12.648 12.648s5.42 12.648 12.648 12.648zm36.135-309.8621c7.227 0 12.648-5.4199 12.648-12.6477 0-7.224-5.421-12.6475-12.648-12.6475-7.228 0-12.648 5.4235-12.648 12.6475 0 7.2278 5.42 12.6477 12.648 12.6477zm0 38.845c7.227 0 12.648-5.4198 12.648-12.6476 0-7.224-5.421-12.6439-12.648-12.6439-7.228 0-12.648 5.4199-12.648 12.6439 0 7.2278 5.42 12.6476 12.648 12.6476zm0 38.8491c7.227 0 12.648-5.424 12.648-12.648 0-7.228-5.421-12.648-12.648-12.648-7.228 0-12.648 5.42-12.648 12.648 0 7.224 5.42 12.648 12.648 12.648zm0 38.845c7.227 0 12.648-5.42 12.648-12.648s-5.421-12.648-12.648-12.648c-7.228 0-12.648 5.42-12.648 12.648s5.42 12.648 12.648 12.648zm0 38.845c7.227 0 12.648-5.42 12.648-12.648s-5.421-12.648-12.648-12.648c-7.228 0-12.648 5.42-12.648 12.648s5.42 12.648 12.648 12.648zm0 37.943c7.227 0 12.648-4.518 12.648-11.746s-5.421-12.648-12.648-12.648c-7.228 0-12.648 5.42-12.648 12.648s5.42 11.746 12.648 11.746zm0 38.845c7.227 0 12.648-5.42 12.648-12.648s-5.421-12.648-12.648-12.648c-7.228 0-12.648 5.42-12.648 12.648s5.42 12.648 12.648 12.648zm0 38.845c7.227 0 12.648-5.42 12.648-12.648s-5.421-12.648-12.648-12.648c-7.228 0-12.648 5.42-12.648 12.648s5.42 12.648 12.648 12.648zm0 38.845c7.227 0 12.648-5.42 12.648-12.648s-5.421-12.648-12.648-12.648c-7.228 0-12.648 5.42-12.648 12.648s5.42 12.648 12.648 12.648zm36.135-271.0171c7.228 0 12.647-5.4198 12.647-12.6476 0-7.224-5.419-12.6439-12.647-12.6439-7.224 0-12.648 5.4199-12.648 12.6439 0 7.2278 5.424 12.6476 12.648 12.6476zm0 38.8491c7.228 0 12.647-5.424 12.647-12.648 0-7.228-5.419-12.648-12.647-12.648-7.224 0-12.648 5.42-12.648 12.648 0 7.224 5.424 12.648 12.648 12.648zm0 38.845c7.228 0 12.647-5.42 12.647-12.648s-5.419-12.648-12.647-12.648c-7.224 0-12.648 5.42-12.648 12.648s5.424 12.648 12.648 12.648zm0 38.845c7.228 0 12.647-5.42 12.647-12.648s-5.419-12.648-12.647-12.648c-7.224 0-12.648 5.42-12.648 12.648s5.424 12.648 12.648 12.648zm0 37.943c7.228 0 12.647-4.518 12.647-11.746s-5.419-12.648-12.647-12.648c-7.224 0-12.648 5.42-12.648 12.648s5.424 11.746 12.648 11.746zm0 38.845c7.228 0 12.647-5.42 12.647-12.648s-5.419-12.648-12.647-12.648c-7.224 0-12.648 5.42-12.648 12.648s5.424 12.648 12.648 12.648zm0 38.845c7.228 0 12.647-5.42 12.647-12.648s-5.419-12.648-12.647-12.648c-7.224 0-12.648 5.42-12.648 12.648s5.424 12.648 12.648 12.648zm37.041-193.323c7.228 0 12.647-5.424 12.647-12.648 0-7.228-5.419-12.648-12.647-12.648s-12.648 5.42-12.648 12.648c0 7.224 5.42 12.648 12.648 12.648zm0 38.845c7.228 0 12.647-5.42 12.647-12.648s-5.419-12.648-12.647-12.648-12.648 5.42-12.648 12.648 5.42 12.648 12.648 12.648zm0 38.845c7.228 0 12.647-5.42 12.647-12.648s-5.419-12.648-12.647-12.648-12.648 5.42-12.648 12.648 5.42 12.648 12.648 12.648zm0 37.943c7.228 0 12.647-4.518 12.647-11.746s-5.419-12.648-12.647-12.648-12.648 5.42-12.648 12.648 5.42 11.746 12.648 11.746zm0 38.845c7.228 0 12.647-5.42 12.647-12.648s-5.419-12.648-12.647-12.648-12.648 5.42-12.648 12.648 5.42 12.648 12.648 12.648z" fill="#000"/></svg>