<svg viewBox="0 0 500 500" xmlns="http://www.w3.org/2000/svg"><path d="m47.0496 475h254.6974v-9.002h-71.999c-13.499 0-17.098-2.7-17.098-15.3v-170.098h92.699c95.399 0 147.601-38.699 147.601-129.601 0-90.898-57.601-125.999-151.203-125.999h-254.6974v8.9981h46.7988c13.4986 0 17.1016 4.5009 17.1016 15.3v401.3999c0 12.6-5.4 15.3-16.2029 15.3h-47.6975zm165.6004-424.7995c0-10.8028 6.299-16.2024 18.899-16.2024h26.099c65.701 0 95.399 22.5007 95.399 117.0009 0 94.5-28.799 120.599-89.999 120.599h-50.398z" fill="#fafafa"/></svg>