<svg viewBox="0 0 500 500" xmlns="http://www.w3.org/2000/svg"><path d="m71.7988 475h16.2025v-329.401h-16.2025zm30.6002 0h16.202v-329.401h-16.202zm30.6 0h16.199v-329.401h-16.199zm30.6 0h16.199v-329.401h-16.199zm96.301-450h-188.1012v14.3977h183.6012c100.798 0 156.599 55.8006 156.599 144.0023 0 88.198-56.7 143.999-156.599 143.999h-61.201v14.401h65.701c105.3 0 168.301-61.2 168.301-158.4 0-97.1998-63.001-158.4-168.301-158.4zm0 28.799h-188.1012v14.4014h183.6012c83.701 0 125.998 47.6976 125.998 115.1996 0 67.499-43.2 115.2-125.998 115.2h-61.201v14.398h65.701c88.199 0 137.701-53.098 137.701-129.598s-49.502-129.601-137.701-129.601zm0 30.6001h-188.1012v14.4014h183.6012c63.001 0 93.601 34.1985 93.601 84.5995 0 47.698-31.502 86.401-93.601 86.401h-61.201v14.398h65.701c67.499 0 105.3-44.099 105.3-100.799 0-59.399-37.801-99.0009-105.3-99.0009zm-.902 30.5999h-187.1992v14.402h182.7022c45.9 0 62.099 24.298 62.099 53.999 0 29.698-17.101 55.801-62.099 55.801h-60.302v14.398h64.799c50.401 0 73.801-31.499 73.801-70.199 0-38.699-23.4-68.401-73.801-68.401z" fill="#fafafa"/></svg>