<svg viewBox="0 0 500 500" xmlns="http://www.w3.org/2000/svg"><path d="m82.6 475h81.001v-147.601h84.6c102.599 0 169.199-60.298 169.199-155.7 0-95.3992-66.6-146.699-171-146.699h-163.8zm26.099-423.0021h142.202c81.9 0 139.498 39.6019 139.498 119.7011 0 80.102-52.199 128.702-138.6 128.702h-88.198v-25.2h91.8c72 0 107.999-40.501 107.999-103.502 0-62.998-39.601-96.2979-108.901-96.2979h-117.001v374.3979h-28.799zm54.902 50.4011h94.5c53.097 0 78.298 23.399 78.298 69.3 0 45.9-23.399 76.5-72.898 76.5h-99.9z" fill="#fafafa"/></svg>