<svg viewBox="0 0 500 500" xmlns="http://www.w3.org/2000/svg"><path d="m191.502 188.802c0-36.902 19.797-56.703 61.2-56.703 41.399 0 68.396 19.801 68.396 57.602 0 37.8-26.997 54.898-68.396 54.898-41.403 0-61.2-18.899-61.2-55.797zm-140.3992 286.198h156.5972c-12.6-54.902-16.198-95.402-16.198-162.001v-9.9c22.497 40.5 57.597 54.901 109.799 54.901 82.798 0 147.596-50.401 147.596-164.701 0-114.2962-55.8-168.299-183.599-168.299h-214.1952c10.7991 88.201 15.2998 144.9 15.2998 217.801 0 72.898-2.6997 152.097-15.2998 232.199z" fill="#fafafa"/></svg>