<svg viewBox="0 0 500 500" xmlns="http://www.w3.org/2000/svg"><path d="m42.5503 475h239.3997v-9.002h-73.8v-167.4h107.099c90.901 0 142.2-47.698 142.2-138.598 0-90.8976-56.699-135-145.798-135h-269.1007v9.0017h35.1006v431.9963h-35.1006zm165.5997-440.9983h17.999c65.701 0 99.001 31.4985 99.001 125.9983 0 94.499-32.401 129.6-93.601 129.6h-23.399zm-119.7001 431.9963v-431.9963h108.9011v431.9963zm188.9991-431.9963h38.699c71.1 0 130.502 35.9994 130.502 125.9983 0 89.998-54.003 129.6-131.401 129.6h-35.1c37.8-16.199 55.8-52.198 55.8-129.6 0-77.3988-19.801-112.4995-58.5-125.9983z" fill="#fafafa"/></svg>