<svg viewBox="0 0 500 500" xmlns="http://www.w3.org/2000/svg"><path d="m181.15 128.502h63.9c44.099 0 67.498 18.899 67.498 63.9 0 44.998-23.399 66.6-67.498 66.6h-63.9zm-117.0011 346.498h49.5021v-450h-49.5021zm189.9031-172.798c66.599 0 109.8-41.403 109.8-111.601 0-70.202-43.201-103.502-118.802-103.502h-113.399v215.103zm-122.401 18v154.798h49.499v-112.5h79.2c109.8 0 175.501-73.8 175.501-171 0-97.2003-63.9-166.5-175.501-166.5h-128.699v44.0991h119.697c75.602 0 132.301 38.6999 132.301 121.5019 0 82.799-54.898 129.601-130.5 129.601z" fill="#000"/></svg>