<svg viewBox="0 0 500 500" xmlns="http://www.w3.org/2000/svg"><path d="m47.9499 475h237.5981c11.702 0 16.203-6.302 16.203-17.101s-6.302-15.3-17.101-15.3h-16.199c-22.501 0-30.6-9.002-30.6-32.401v-51.299h50.397c120.602 0 180.001-46.799 180.001-171.898 0-125.0993-59.399-162.001-193.5-162.001h-226.7991c-10.7991 0-16.1987 5.4032-16.1987 16.2023 0 10.799 5.3996 15.3 16.1987 15.3 11.7014 0 17.1011 8.0992 17.1011 32.3971v321.2986c0 22.501-7.2007 32.401-17.1011 32.401-11.6978 0-16.1987 5.4-16.1987 16.199s4.5009 16.202 16.1987 16.202zm189.9011-402.2992c0-10.7991 6.298-16.1985 18.898-16.1985h6.302c29.698 0 37.797 4.5008 37.797 133.1987 0 128.697-9.9 137.699-50.397 137.699h-12.6z" fill="#fafafa"/></svg>